HIERARCHY
ROOT mixamorig_Hips
{
	OFFSET 0.020640 11.157056 0.487493
	CHANNELS 6 Xposition Yposition Zposition Xrotation Yrotation Zrotation
	JOINT mixamorig_Spine
	{
		OFFSET 0.000000 1.086045 -0.051660
		CHANNELS 6 Xposition Yposition Zposition Xrotation Yrotation Zrotation
		JOINT mixamorig_Spine1
		{
			OFFSET 0.000000 1.267046 -0.060276
			CHANNELS 6 Xposition Yposition Zposition Xrotation Yrotation Zrotation
			JOINT mixamorig_Spine2
			{
				OFFSET 0.000000 1.448055 -0.068887
				CHANNELS 6 Xposition Yposition Zposition Xrotation Yrotation Zrotation
				JOINT mixamorig_Neck
				{
					OFFSET -0.000000 1.629051 -0.077505
					CHANNELS 6 Xposition Yposition Zposition Xrotation Yrotation Zrotation
					JOINT mixamorig_Head
					{
						OFFSET 0.000000 0.906378 0.050733
						CHANNELS 6 Xposition Yposition Zposition Xrotation Yrotation Zrotation
						JOINT mixamorig_HeadTop_End
						{
							OFFSET 0.000000 2.380442 0.133240
							CHANNELS 6 Xposition Yposition Zposition Xrotation Yrotation Zrotation
							End Site
							{
								OFFSET 0.000000 0.183838 0.000000
							}
						}
					}
				}
				JOINT mixamorig_LeftShoulder
				{
					OFFSET 0.659278 1.387909 -0.081986
					CHANNELS 6 Xposition Yposition Zposition Xrotation Yrotation Zrotation
					JOINT mixamorig_LeftArm
					{
						OFFSET 1.229591 -0.469118 -0.008964
						CHANNELS 6 Xposition Yposition Zposition Xrotation Yrotation Zrotation
						JOINT mixamorig_LeftForeArm
						{
							OFFSET 1.825300 -2.022630 0.145900
							CHANNELS 6 Xposition Yposition Zposition Xrotation Yrotation Zrotation
							JOINT mixamorig_LeftHand
							{
								OFFSET 1.568751 -1.683712 1.802064
								CHANNELS 6 Xposition Yposition Zposition Xrotation Yrotation Zrotation
								JOINT mixamorig_LeftHandThumb1
								{
									OFFSET -0.121761 -0.129973 0.387755
									CHANNELS 6 Xposition Yposition Zposition Xrotation Yrotation Zrotation
									JOINT mixamorig_LeftHandThumb2
									{
										OFFSET -0.097414 -0.103971 0.310205
										CHANNELS 6 Xposition Yposition Zposition Xrotation Yrotation Zrotation
										JOINT mixamorig_LeftHandThumb3
										{
											OFFSET -0.122980 -0.145829 0.280966
											CHANNELS 6 Xposition Yposition Zposition Xrotation Yrotation Zrotation
											JOINT mixamorig_LeftHandThumb4
											{
												OFFSET -0.069534 -0.122701 0.258669
												CHANNELS 6 Xposition Yposition Zposition Xrotation Yrotation Zrotation
												End Site
												{
													OFFSET 0.000000 0.183837 0.000000
												}
											}
										}
									}
								}
								JOINT mixamorig_LeftHandIndex1
								{
									OFFSET 0.209882 -0.467936 0.906763
									CHANNELS 6 Xposition Yposition Zposition Xrotation Yrotation Zrotation
									JOINT mixamorig_LeftHandIndex2
									{
										OFFSET 0.058536 -0.163424 0.241278
										CHANNELS 6 Xposition Yposition Zposition Xrotation Yrotation Zrotation
										JOINT mixamorig_LeftHandIndex3
										{
											OFFSET -0.007178 -0.187136 0.212458
											CHANNELS 6 Xposition Yposition Zposition Xrotation Yrotation Zrotation
											JOINT mixamorig_LeftHandIndex4
											{
												OFFSET 0.017731 -0.144657 0.184288
												CHANNELS 6 Xposition Yposition Zposition Xrotation Yrotation Zrotation
												End Site
												{
													OFFSET 0.000000 0.183837 0.000000
												}
											}
										}
									}
								}
								JOINT mixamorig_LeftHandMiddle1
								{
									OFFSET 0.337469 -0.595959 0.732773
									CHANNELS 6 Xposition Yposition Zposition Xrotation Yrotation Zrotation
									JOINT mixamorig_LeftHandMiddle2
									{
										OFFSET 0.122063 -0.225777 0.220045
										CHANNELS 6 Xposition Yposition Zposition Xrotation Yrotation Zrotation
										JOINT mixamorig_LeftHandMiddle3
										{
											OFFSET 0.050263 -0.249161 0.192376
											CHANNELS 6 Xposition Yposition Zposition Xrotation Yrotation Zrotation
											JOINT mixamorig_LeftHandMiddle4
											{
												OFFSET 0.076541 -0.202111 0.177429
												CHANNELS 6 Xposition Yposition Zposition Xrotation Yrotation Zrotation
												End Site
												{
													OFFSET 0.000000 0.183837 0.000000
												}
											}
										}
									}
								}
								JOINT mixamorig_LeftHandRing1
								{
									OFFSET 0.468255 -0.704970 0.579397
									CHANNELS 6 Xposition Yposition Zposition Xrotation Yrotation Zrotation
									JOINT mixamorig_LeftHandRing2
									{
										OFFSET 0.116428 -0.226060 0.157902
										CHANNELS 6 Xposition Yposition Zposition Xrotation Yrotation Zrotation
										JOINT mixamorig_LeftHandRing3
										{
											OFFSET 0.055597 -0.242989 0.135421
											CHANNELS 6 Xposition Yposition Zposition Xrotation Yrotation Zrotation
											JOINT mixamorig_LeftHandRing4
											{
												OFFSET 0.082120 -0.201086 0.129879
												CHANNELS 6 Xposition Yposition Zposition Xrotation Yrotation Zrotation
												End Site
												{
													OFFSET 0.000000 0.183837 0.000000
												}
											}
										}
									}
								}
								JOINT mixamorig_LeftHandPinky1
								{
									OFFSET 0.476112 -0.723730 0.361294
									CHANNELS 6 Xposition Yposition Zposition Xrotation Yrotation Zrotation
									JOINT mixamorig_LeftHandPinky2
									{
										OFFSET 0.095015 -0.207923 0.084722
										CHANNELS 6 Xposition Yposition Zposition Xrotation Yrotation Zrotation
										JOINT mixamorig_LeftHandPinky3
										{
											OFFSET 0.044231 -0.187613 0.061206
											CHANNELS 6 Xposition Yposition Zposition Xrotation Yrotation Zrotation
											JOINT mixamorig_LeftHandPinky4
											{
												OFFSET 0.026008 -0.174690 0.051019
												CHANNELS 6 Xposition Yposition Zposition Xrotation Yrotation Zrotation
												End Site
												{
													OFFSET 0.000000 0.183837 0.000000
												}
											}
										}
									}
								}
							}
						}
					}
				}
				JOINT mixamorig_RightShoulder
				{
					OFFSET -0.659278 1.387899 -0.073029
					CHANNELS 6 Xposition Yposition Zposition Xrotation Yrotation Zrotation
					JOINT mixamorig_RightArm
					{
						OFFSET -1.229595 -0.469112 0.008976
						CHANNELS 6 Xposition Yposition Zposition Xrotation Yrotation Zrotation
						JOINT mixamorig_RightForeArm
						{
							OFFSET -1.825301 -2.022622 0.121602
							CHANNELS 6 Xposition Yposition Zposition Xrotation Yrotation Zrotation
							JOINT mixamorig_RightHand
							{
								OFFSET -1.568747 -1.683717 1.778008
								CHANNELS 6 Xposition Yposition Zposition Xrotation Yrotation Zrotation
								JOINT mixamorig_RightHandThumb1
								{
									OFFSET 0.097947 -0.125759 0.390839
									CHANNELS 6 Xposition Yposition Zposition Xrotation Yrotation Zrotation
									JOINT mixamorig_RightHandThumb2
									{
										OFFSET 0.078354 -0.100609 0.312676
										CHANNELS 6 Xposition Yposition Zposition Xrotation Yrotation Zrotation
										JOINT mixamorig_RightHandThumb3
										{
											OFFSET 0.120598 -0.146680 0.284108
											CHANNELS 6 Xposition Yposition Zposition Xrotation Yrotation Zrotation
											JOINT mixamorig_RightHandThumb4
											{
												OFFSET 0.080007 -0.124882 0.269864
												CHANNELS 6 Xposition Yposition Zposition Xrotation Yrotation Zrotation
												End Site
												{
													OFFSET 0.000000 0.183837 0.000000
												}
											}
										}
									}
								}
								JOINT mixamorig_RightHandIndex1
								{
									OFFSET -0.235821 -0.454239 0.873734
									CHANNELS 6 Xposition Yposition Zposition Xrotation Yrotation Zrotation
									JOINT mixamorig_RightHandIndex2
									{
										OFFSET -0.073069 -0.161905 0.258829
										CHANNELS 6 Xposition Yposition Zposition Xrotation Yrotation Zrotation
										JOINT mixamorig_RightHandIndex3
										{
											OFFSET -0.002974 -0.194042 0.233238
											CHANNELS 6 Xposition Yposition Zposition Xrotation Yrotation Zrotation
											JOINT mixamorig_RightHandIndex4
											{
												OFFSET 0.024923 -0.180556 0.192156
												CHANNELS 6 Xposition Yposition Zposition Xrotation Yrotation Zrotation
												End Site
												{
													OFFSET 0.000000 0.183837 0.000000
												}
											}
										}
									}
								}
								JOINT mixamorig_RightHandMiddle1
								{
									OFFSET -0.368422 -0.612429 0.744356
									CHANNELS 6 Xposition Yposition Zposition Xrotation Yrotation Zrotation
									JOINT mixamorig_RightHandMiddle2
									{
										OFFSET -0.134549 -0.217710 0.225567
										CHANNELS 6 Xposition Yposition Zposition Xrotation Yrotation Zrotation
										JOINT mixamorig_RightHandMiddle3
										{
											OFFSET -0.050885 -0.248671 0.194470
											CHANNELS 6 Xposition Yposition Zposition Xrotation Yrotation Zrotation
											JOINT mixamorig_RightHandMiddle4
											{
												OFFSET -0.058340 -0.220344 0.180461
												CHANNELS 6 Xposition Yposition Zposition Xrotation Yrotation Zrotation
												End Site
												{
													OFFSET 0.000000 0.183837 0.000000
												}
											}
										}
									}
								}
								JOINT mixamorig_RightHandRing1
								{
									OFFSET -0.488859 -0.695082 0.590430
									CHANNELS 6 Xposition Yposition Zposition Xrotation Yrotation Zrotation
									JOINT mixamorig_RightHandRing2
									{
										OFFSET -0.135302 -0.226800 0.161079
										CHANNELS 6 Xposition Yposition Zposition Xrotation Yrotation Zrotation
										JOINT mixamorig_RightHandRing3
										{
											OFFSET -0.061274 -0.248987 0.134210
											CHANNELS 6 Xposition Yposition Zposition Xrotation Yrotation Zrotation
											JOINT mixamorig_RightHandRing4
											{
												OFFSET -0.076053 -0.216276 0.127733
												CHANNELS 6 Xposition Yposition Zposition Xrotation Yrotation Zrotation
												End Site
												{
													OFFSET 0.000000 0.183837 0.000000
												}
											}
										}
									}
								}
								JOINT mixamorig_RightHandPinky1
								{
									OFFSET -0.483078 -0.712355 0.384274
									CHANNELS 6 Xposition Yposition Zposition Xrotation Yrotation Zrotation
									JOINT mixamorig_RightHandPinky2
									{
										OFFSET -0.125181 -0.210061 0.093046
										CHANNELS 6 Xposition Yposition Zposition Xrotation Yrotation Zrotation
										JOINT mixamorig_RightHandPinky3
										{
											OFFSET -0.044162 -0.194088 0.059497
											CHANNELS 6 Xposition Yposition Zposition Xrotation Yrotation Zrotation
											JOINT mixamorig_RightHandPinky4
											{
												OFFSET -0.042042 -0.178361 0.055440
												CHANNELS 6 Xposition Yposition Zposition Xrotation Yrotation Zrotation
												End Site
												{
													OFFSET 0.000000 0.183837 0.000000
												}
											}
										}
									}
								}
							}
						}
					}
				}
			}
		}
	}
	JOINT mixamorig_LeftUpLeg
	{
		OFFSET 1.119729 -0.603588 0.000098
		CHANNELS 6 Xposition Yposition Zposition Xrotation Yrotation Zrotation
		JOINT mixamorig_LeftLeg
		{
			OFFSET 0.424019 -4.989635 -0.041677
			CHANNELS 6 Xposition Yposition Zposition Xrotation Yrotation Zrotation
			JOINT mixamorig_LeftFoot
			{
				OFFSET 0.393277 -4.695111 -0.206111
				CHANNELS 6 Xposition Yposition Zposition Xrotation Yrotation Zrotation
				JOINT mixamorig_LeftToeBase
				{
					OFFSET -0.085362 -0.929541 1.402499
					CHANNELS 6 Xposition Yposition Zposition Xrotation Yrotation Zrotation
					JOINT mixamorig_LeftToe_End
					{
						OFFSET -0.070143 -0.039428 0.689121
						CHANNELS 6 Xposition Yposition Zposition Xrotation Yrotation Zrotation
						End Site
						{
							OFFSET 0.000000 0.183837 0.000000
						}
					}
				}
			}
		}
	}
	JOINT mixamorig_RightUpLeg
	{
		OFFSET -1.119727 -0.603593 -0.010639
		CHANNELS 6 Xposition Yposition Zposition Xrotation Yrotation Zrotation
		JOINT mixamorig_RightLeg
		{
			OFFSET -0.424029 -4.989627 0.006527
			CHANNELS 6 Xposition Yposition Zposition Xrotation Yrotation Zrotation
			JOINT mixamorig_RightFoot
			{
				OFFSET -0.393271 -4.695121 -0.158584
				CHANNELS 6 Xposition Yposition Zposition Xrotation Yrotation Zrotation
				JOINT mixamorig_RightToeBase
				{
					OFFSET 0.085364 -0.929522 1.289770
					CHANNELS 6 Xposition Yposition Zposition Xrotation Yrotation Zrotation
					JOINT mixamorig_RightToe_End
					{
						OFFSET 0.070143 -0.039428 0.688124
						CHANNELS 6 Xposition Yposition Zposition Xrotation Yrotation Zrotation
						End Site
						{
							OFFSET 0.000000 0.183837 0.000000
						}
					}
				}
			}
		}
	}
}
MOTION
Frames: 3
Frame Time: 0.041667
-0.015462 13.350464 0.067027 -4.734299 2.633082 -1.735444 -0.000000 1.086041 -0.051665 -0.558459 -0.721831 -0.717839 0.000000 1.267046 -0.060276 0.249946 -0.526291 -0.251001 -0.000000 1.448056 -0.068887 0.246054 -0.527290 -0.260471 0.000000 1.629059 -0.077498 15.201208 -0.806242 1.175587 -0.000000 0.906381 0.050734 -6.223495 -6.285698 3.633393 0.000000 2.380442 0.133240 0.000000 -0.000001 0.000000 0.659284 1.387911 -0.081980 9.202501 4.682040 64.573005 1.229596 -0.469116 -0.008964 -49.973120 3.402526 64.138365 1.825294 -2.022629 0.145901 6.085026 5.107216 -0.999113 1.568742 -1.683712 1.802061 -9.163604 44.266169 -30.527599 -0.121770 -0.129961 0.387760 -2.131114 9.279422 20.371534 -0.097413 -0.103970 0.310208 16.531307 13.106996 10.140966 -0.122976 -0.145822 0.280962 35.785608 8.360389 6.108619 -0.069534 -0.122701 0.258667 0.000000 0.000002 -0.000002 0.209878 -0.467930 0.906764 32.511332 -28.188175 -22.221375 0.058536 -0.163427 0.241279 21.348682 -19.577095 -12.346719 -0.007171 -0.187132 0.212460 28.948008 -37.044122 -18.926543 0.017731 -0.144656 0.184287 0.000001 0.000000 -0.000000 0.337470 -0.595953 0.732782 12.491227 -30.327969 -34.349185 0.122061 -0.225768 0.220041 20.117429 -19.558487 -24.096113 0.050264 -0.249168 0.192377 23.870669 -34.624295 -37.204443 0.076540 -0.202111 0.177429 -0.000001 -0.000002 0.000003 0.468259 -0.704964 0.579401 8.508537 -30.690796 -37.762815 0.116421 -0.226061 0.157896 16.346967 -13.724515 -25.199838 0.055600 -0.242989 0.135422 19.783517 -26.088679 -41.035220 0.082120 -0.201087 0.129881 0.000000 -0.000000 0.000000 0.476111 -0.723715 0.361299 -5.405483 -19.225729 -24.828597 0.095012 -0.207928 0.084726 14.064901 -15.108769 -37.210761 0.044238 -0.187610 0.061208 15.950759 -12.493126 -34.198634 0.026009 -0.174687 0.051019 0.000001 0.000002 -0.000000 -0.659281 1.387914 -0.073015 7.511506 -5.353441 -61.808219 -1.229594 -0.469114 0.008965 -53.149298 -0.701423 -58.799343 -1.825292 -2.022627 0.121599 9.345010 -7.987666 1.395504 -1.568745 -1.683716 1.778010 -12.278509 -32.643670 33.021537 0.097948 -0.125760 0.390845 8.431880 -22.364906 -3.462233 0.078354 -0.100608 0.312676 8.330529 -21.526986 -4.896813 0.120598 -0.146679 0.284107 33.334069 -16.521236 -10.684661 0.080007 -0.124882 0.269862 -0.000001 0.000002 0.000003 -0.235822 -0.454240 0.873735 28.869184 42.729660 38.036019 -0.073075 -0.161903 0.258833 15.967302 13.050875 9.304168 -0.002969 -0.194040 0.233234 32.477198 37.330723 16.385072 0.024925 -0.180556 0.192153 -0.000002 0.000002 -0.000002 -0.368419 -0.612421 0.744364 20.946414 40.999382 42.314453 -0.134547 -0.217713 0.225566 15.155111 12.496835 17.109030 -0.050883 -0.248667 0.194472 21.589475 41.155636 33.386337 -0.058342 -0.220343 0.180460 0.000000 0.000002 -0.000001 -0.488867 -0.695085 0.590438 2.785509 35.355863 51.293153 -0.135291 -0.226794 0.161073 12.088565 8.602831 18.594755 -0.061290 -0.248981 0.134216 22.042648 31.855688 52.476296 -0.076052 -0.216274 0.127731 0.000001 -0.000002 -0.000002 -0.483081 -0.712360 0.384273 -2.946273 33.339072 54.486284 -0.125177 -0.210053 0.093043 5.836848 1.648483 9.479708 -0.044166 -0.194085 0.059498 10.137428 7.037251 23.680729 -0.042043 -0.178358 0.055439 0.000001 0.000000 0.000003 1.119727 -0.603589 0.000103 -5.193372 11.545719 -0.556461 0.424025 -4.989636 -0.041680 16.031376 -4.321146 1.431289 0.393275 -4.695112 -0.206112 37.016258 1.320477 -1.635663 -0.085362 -0.929539 1.402499 -1.031372 -0.000006 0.000045 -0.070143 -0.039428 0.689121 -0.000000 -0.000001 0.000001 -1.119727 -0.603589 -0.010640 -3.936079 -5.795194 3.394005 -0.424025 -4.989633 0.006526 15.279039 -4.632602 1.003662 -0.393271 -4.695119 -0.158584 34.861190 -0.576180 3.886592 0.085363 -0.929523 1.289769 -0.228903 -0.000022 0.000003 0.070143 -0.039428 0.688124 -0.000001 0.000000 0.000002 
-0.011292 13.348045 0.056204 -4.685485 2.713835 -1.680998 0.000000 1.086041 -0.051665 -0.562984 -0.730570 -0.712278 -0.000000 1.267046 -0.060276 0.237825 -0.532861 -0.250199 0.000000 1.448055 -0.068886 0.233881 -0.533940 -0.259701 0.000000 1.629057 -0.077497 15.250344 -0.809817 1.162031 -0.000000 0.906378 0.050733 -6.228944 -6.258694 3.485898 -0.000000 2.380440 0.133240 -0.000000 -0.000000 0.000000 0.659284 1.387911 -0.081979 9.196778 4.702203 64.533717 1.229595 -0.469115 -0.008965 -49.879786 3.289109 64.066211 1.825296 -2.022629 0.145900 6.221580 5.228686 -1.012220 1.568746 -1.683714 1.802062 -9.306406 44.345621 -30.497416 -0.121768 -0.129961 0.387758 -2.488854 8.998533 20.117651 -0.097414 -0.103974 0.310209 16.315536 13.014148 10.103445 -0.122975 -0.145823 0.280966 35.762341 8.349372 6.103322 -0.069533 -0.122700 0.258669 -0.000000 0.000001 -0.000002 0.209880 -0.467927 0.906764 32.417294 -28.314510 -22.362999 0.058535 -0.163428 0.241282 21.314311 -19.531995 -12.326889 -0.007171 -0.187134 0.212463 28.914154 -36.996922 -18.914834 0.017731 -0.144660 0.184289 -0.000005 0.000000 0.000001 0.337472 -0.595952 0.732784 12.493359 -30.466438 -34.533419 0.122063 -0.225769 0.220043 20.058205 -19.460015 -24.005105 0.050260 -0.249167 0.192379 23.830730 -34.518106 -37.114425 0.076541 -0.202114 0.177429 -0.000004 -0.000002 -0.000000 0.468261 -0.704963 0.579400 8.534567 -30.635707 -37.656588 0.116421 -0.226061 0.157896 16.327260 -13.695247 -25.159374 0.055604 -0.242993 0.135424 19.771509 -26.056156 -40.994877 0.082121 -0.201086 0.129879 -0.000000 -0.000001 0.000000 0.476113 -0.723714 0.361300 -5.302815 -19.190207 -24.709662 0.095010 -0.207927 0.084719 13.981022 -14.977172 -36.956204 0.044230 -0.187613 0.061207 15.861982 -12.363386 -33.942301 0.026008 -0.174691 0.051020 0.000000 0.000003 0.000000 -0.659283 1.387914 -0.073015 7.509578 -5.367810 -61.820083 -1.229591 -0.469117 0.008964 -53.151699 -0.470300 -58.815558 -1.825294 -2.022627 0.121601 9.578276 -8.191039 1.429692 -1.568749 -1.683720 1.778010 -12.322369 -32.517796 32.980217 0.097944 -0.125759 0.390842 8.144421 -22.374892 -3.544444 0.078357 -0.100610 0.312672 8.327650 -21.525456 -4.896332 0.120598 -0.146679 0.284104 33.168269 -16.381164 -10.634741 0.080007 -0.124881 0.269866 0.000002 -0.000001 0.000003 -0.235825 -0.454240 0.873733 28.839757 42.943465 38.265506 -0.073075 -0.161904 0.258833 15.869647 12.932874 9.240591 -0.002969 -0.194041 0.233235 32.377627 37.199099 16.362410 0.024925 -0.180555 0.192155 -0.000000 0.000002 -0.000002 -0.368424 -0.612422 0.744360 20.757385 40.967328 42.431464 -0.134551 -0.217712 0.225566 15.072356 12.385082 16.991759 -0.050882 -0.248672 0.194472 21.563768 41.027556 33.262885 -0.058341 -0.220343 0.180461 0.000003 0.000000 -0.000000 -0.488871 -0.695081 0.590433 2.606551 35.199527 51.190547 -0.135291 -0.226792 0.161073 11.977319 8.469762 18.374910 -0.061287 -0.248984 0.134214 22.011885 31.679937 52.258535 -0.076053 -0.216276 0.127732 0.000000 0.000000 0.000002 -0.483084 -0.712360 0.384271 -2.903559 33.112047 53.872625 -0.125180 -0.210054 0.093042 5.672029 1.544615 9.103936 -0.044166 -0.194086 0.059498 10.002333 6.896128 23.317110 -0.042041 -0.178357 0.055439 -0.000000 -0.000002 -0.000001 1.119727 -0.603589 0.000103 -5.098822 11.540047 -0.680270 0.424024 -4.989636 -0.041680 15.837192 -3.979845 1.364903 0.393275 -4.695112 -0.206112 36.982507 1.362128 -1.497425 -0.085362 -0.929539 1.402500 -0.999534 0.000004 0.000037 -0.070143 -0.039428 0.689121 -0.000003 -0.000000 0.000001 -1.119727 -0.603587 -0.010640 -3.893373 -5.798420 3.368300 -0.424025 -4.989634 0.006526 15.274513 -4.798567 1.055256 -0.393271 -4.695118 -0.158584 34.726587 -0.662589 3.548078 0.085363 -0.929523 1.289769 0.086858 -0.000047 0.000017 0.070143 -0.039428 0.688124 0.000004 -0.000001 -0.000000 
-0.006972 13.346092 0.043106 -4.634331 2.777391 -1.645221 -0.000000 1.086041 -0.051665 -0.555496 -0.739472 -0.709066 -0.000000 1.267046 -0.060275 0.232016 -0.539422 -0.250165 -0.000000 1.448055 -0.068887 0.228044 -0.540537 -0.259680 0.000000 1.629059 -0.077497 15.274864 -0.829671 1.206937 -0.000000 0.906380 0.050732 -6.333912 -6.292465 3.308011 0.000000 2.380440 0.133240 -0.000000 0.000000 -0.000000 0.659283 1.387911 -0.081980 9.191967 4.722927 64.509286 1.229595 -0.469115 -0.008965 -49.814004 3.205465 64.034765 1.825297 -2.022628 0.145901 6.315297 5.312026 -1.021381 1.568745 -1.683712 1.802063 -9.396153 44.432419 -30.474101 -0.121766 -0.129960 0.387761 -2.583283 8.925255 20.051057 -0.097413 -0.103972 0.310207 16.265448 12.992604 10.094836 -0.122976 -0.145828 0.280966 35.758926 8.347774 6.102573 -0.069534 -0.122701 0.258667 -0.000000 -0.000001 0.000000 0.209883 -0.467928 0.906764 32.403333 -28.377378 -22.417453 0.058536 -0.163430 0.241283 21.302143 -19.516051 -12.319893 -0.007169 -0.187133 0.212460 28.902191 -36.980249 -18.910659 0.017731 -0.144657 0.184287 0.000001 -0.000002 0.000001 0.337475 -0.595952 0.732784 12.502251 -30.521120 -34.601458 0.122064 -0.225769 0.220042 20.043438 -19.435457 -23.982411 0.050262 -0.249166 0.192379 23.820727 -34.491687 -37.091991 0.076541 -0.202110 0.177426 -0.000001 -0.000002 -0.000001 0.468263 -0.704964 0.579404 8.543073 -30.608188 -37.607028 0.116418 -0.226062 0.157898 16.321015 -13.685991 -25.146578 0.055602 -0.242989 0.135423 19.767698 -26.045866 -40.982071 0.082120 -0.201087 0.129880 -0.000001 0.000000 0.000000 0.476117 -0.723716 0.361300 -5.261539 -19.175358 -24.660835 0.095011 -0.207927 0.084726 13.958807 -14.942535 -36.889056 0.044233 -0.187615 0.061206 15.838476 -12.329237 -33.874685 0.026007 -0.174692 0.051018 -0.000001 0.000003 0.000001 -0.659284 1.387910 -0.073015 7.507174 -5.379059 -61.808786 -1.229595 -0.469115 0.008964 -53.165028 -0.282205 -58.830304 -1.825293 -2.022627 0.121600 9.780166 -8.366780 1.459929 -1.568746 -1.683719 1.778009 -12.382983 -32.414609 32.923615 0.097947 -0.125757 0.390843 8.006040 -22.369025 -3.575303 0.078355 -0.100610 0.312676 8.326882 -21.525059 -4.896193 0.120598 -0.146681 0.284109 33.108055 -16.330142 -10.616379 0.080007 -0.124880 0.269865 0.000001 -0.000001 0.000003 -0.235822 -0.454239 0.873732 28.861333 42.999999 38.303158 -0.073076 -0.161902 0.258836 15.885987 12.952625 9.251256 -0.002970 -0.194041 0.233234 32.394122 37.220942 16.366211 0.024925 -0.180555 0.192158 0.000000 -0.000003 0.000002 -0.368421 -0.612422 0.744364 20.730982 40.979571 42.467183 -0.134551 -0.217711 0.225567 15.067237 12.378192 16.984514 -0.050884 -0.248670 0.194472 21.562431 41.019418 33.255836 -0.058341 -0.220343 0.180461 -0.000001 0.000002 0.000002 -0.488867 -0.695082 0.590436 2.558368 35.170167 51.187224 -0.135289 -0.226795 0.161074 11.952299 8.439985 18.325585 -0.061285 -0.248986 0.134215 22.004904 31.640472 52.209741 -0.076053 -0.216273 0.127733 0.000001 -0.000003 0.000002 -0.483082 -0.712360 0.384272 -2.883373 33.051859 53.697844 -0.125177 -0.210055 0.093043 5.628717 1.517607 9.005458 -0.044168 -0.194082 0.059498 9.966805 6.859321 23.221788 -0.042042 -0.178358 0.055439 -0.000000 -0.000000 0.000000 1.119727 -0.603589 0.000103 -5.061895 11.507399 -0.758044 0.424024 -4.989635 -0.041680 15.703788 -3.897524 1.355914 0.393275 -4.695112 -0.206112 37.008980 1.368693 -1.478175 -0.085362 -0.929539 1.402499 -0.990850 -0.000001 0.000052 -0.070143 -0.039428 0.689121 0.000003 0.000000 0.000001 -1.119727 -0.603586 -0.010640 -3.885707 -5.796848 3.362185 -0.424025 -4.989630 0.006527 15.285595 -4.854211 1.088990 -0.393271 -4.695119 -0.158584 34.587053 -0.763330 3.168887 0.085364 -0.929523 1.289769 0.520087 -0.000018 0.000014 0.070143 -0.039428 0.688124 -0.000002 -0.000001 0.000001 
